<?xml version="1.0" encoding="utf-8"?>
<!-- Generator: Adobe Illustrator 24.3.0, SVG Export Plug-In . SVG Version: 6.00 Build 0)  -->
<svg version="1.1" id="Layer_1" xmlns="http://www.w3.org/2000/svg" xmlns:xlink="http://www.w3.org/1999/xlink" x="0px" y="0px"
	 viewBox="0 0 229.61 283.46" style="enable-background:new 0 0 229.61 283.46;" xml:space="preserve">
<style type="text/css">
	.st0{fill:none;stroke:#000000;stroke-width:0.094;}
</style>
<g>
	<path d="M154.54,168.99l-0.02,0.01c-12.05,7.8-26.41,12.34-41.83,12.34c-42.58,0-77.1-34.52-77.1-77.1
		c0-42.58,34.52-77.1,77.1-77.1c38.06,0,69.68,27.58,75.96,63.84h-46.82l4.56-5.28l18.08-22.32c-11.85-8.61-29.42-5.94-38.06,5.88
		l0,0l-25.78,34.97h0l0,0h0l0,0l25.78,34.97l0,0c8.64,11.82,26.2,14.49,38.06,5.88L146.5,122.9l-4.61-5.34h73.55h0
		c0.56-4.36,0.85-8.81,0.85-13.33c0-57.22-46.39-103.61-103.61-103.61c-57.22,0-103.6,46.39-103.6,103.61
		c0,57.22,46.39,103.61,103.6,103.61c29.83,0,56.7-12.61,75.6-32.78l0.01,0c0,0,0,0,0,0c0,0,0,0,0,0l0,0c0,0,0,0,0,0
		c0.41-0.44,0.82-0.88,1.23-1.32l0.01,0c0,0,0,0,0,0c0,0,0,0,0,0l0,0c-8.28-9.64-23.48-12.44-33.85-5.48l-0.01,0.01 M50.23,104.23
		L50.23,104.23L50.23,104.23l-0.19,0l25.78,34.97l0,0c8.64,11.82,25.45,14.49,37.3,5.88l-30.05-40.85l30.05-40.85
		c-11.85-8.61-28.67-5.94-37.3,5.88l0,0l-25.78,34.97H50.23z"/>
	<path class="st0" d="M143.03,118.81"/>
	<path class="st0" d="M205.56,199.34"/>
	<path d="M219.29,274.85h-7.77v7.77C215.81,282.62,219.29,279.14,219.29,274.85 M220.69,246l7.77-7.77h-9.17v-2.95v-7.77
		c-4.29,0-7.77,3.48-7.77,7.77v39.57h7.77V246H220.69L220.69,246L220.69,246z M228.46,238.23L228.46,238.23l-7.77,7.77
		C224.98,246,228.46,242.52,228.46,238.23"/>
	<path d="M28.77,235.67v-7.76c-15.01,0-27.17,12.17-27.17,27.17c0,15.01,12.17,27.18,27.17,27.18v-7.76
		c-9.39,0-17.22-6.67-19.02-15.53h16.43c4.29,0,7.76-3.48,7.76-7.76H9.75C11.55,242.34,19.38,235.67,28.77,235.67 M36.54,227.9
		h-7.76v7.76C33.06,235.67,36.54,232.19,36.54,227.9 M28.77,282.25h7.76c0-4.29-3.48-7.76-7.76-7.76V282.25z M68.32,282.25h7.76
		V251.2c0-7.15-5.79-12.94-12.94-12.94H46.34v44h7.76v-36.23h9.04c2.86,0,5.18,2.32,5.18,5.18V282.25z"/>
	<path d="M183.61,251.2c0-2.86,2.32-5.18,5.18-5.18h5.18c4.29,0,7.76-3.48,7.76-7.76h-7.76h-5.18c-7.15,0-12.94,5.79-12.94,12.94
		c0,7.15,5.79,12.94,12.94,12.94c2.86,0,5.18,2.32,5.18,5.18c0,2.86-2.32,5.18-5.18,5.18h-5.18c-4.29,0-7.76,3.48-7.76,7.77h7.76
		h5.18c7.15,0,12.94-5.79,12.94-12.94s-5.79-12.94-12.94-12.94C185.93,256.37,183.61,254.06,183.61,251.2"/>
	<path d="M96.48,274.85l-7.77-1.12v8.89C93,282.62,96.48,279.14,96.48,274.85 M97.88,246l7.77-7.77h-9.17v-2.95v-7.77
		c-4.29,0-7.77,3.48-7.77,7.77v39.57h7.77V246H97.88L97.88,246L97.88,246z M105.65,238.23L105.65,238.23L97.88,246
		C102.17,246,105.65,242.52,105.65,238.23"/>
	<path d="M131.01,238.23h-7.77h-0.01c-7.15,0-12.95,5.8-12.95,12.95v22.76v0.91v7.77c4.29,0,7.77-3.48,7.77-7.77v-23.67
		c0-2.86,2.32-5.18,5.18-5.18h0.01C127.53,246,131.01,242.52,131.01,238.23"/>
	<path d="M144.11,238.26h-7.76v31.06c0,7.15,5.79,12.94,12.94,12.94h16.81v-44h-7.76v36.23h-9.04c-2.86,0-5.18-2.32-5.18-5.18
		V238.26z"/>
</g>
</svg>
