<?xml version="1.0" encoding="utf-8"?>
<!-- Generator: Adobe Illustrator 24.3.0, SVG Export Plug-In . SVG Version: 6.00 Build 0)  -->
<svg version="1.1" id="Layer_1" xmlns="http://www.w3.org/2000/svg" xmlns:xlink="http://www.w3.org/1999/xlink" x="0px" y="0px"
	 viewBox="0 0 368.5 119.06" style="enable-background:new 0 0 368.5 119.06;" xml:space="preserve">
<style type="text/css">
	.st0{fill:#038099;stroke:#000000;stroke-width:0.094;}
	.st1{fill:#038099;}
</style>
<g>
	<path class="st0" d="M214.73,88.46"/>
	<path class="st1" d="M85.79,96.13L85.79,96.13c-6.87,4.45-15.05,7.04-23.84,7.04c-24.26,0-43.92-19.67-43.92-43.92
		c0-24.26,19.67-43.93,43.92-43.93c21.68,0,39.7,15.71,43.28,36.37H78.54l2.6-3.01l10.3-12.72c-6.75-4.91-16.76-3.39-21.68,3.35h0
		L55.07,59.24h0v0h0l14.69,19.92l0,0c4.92,6.74,14.93,8.26,21.68,3.35L81.2,69.87l-2.62-3.04h41.9h0c0.32-2.49,0.48-5.02,0.48-7.59
		c0-32.6-26.43-59.03-59.03-59.03S2.92,26.64,2.92,59.24s26.43,59.03,59.03,59.03c16.99,0,32.3-7.18,43.07-18.67l0,0c0,0,0,0,0,0
		c0,0,0,0,0,0h0c0,0,0,0,0,0c0.23-0.25,0.47-0.5,0.7-0.75l0,0c0,0,0,0,0,0c0,0,0,0,0,0h0c-4.71-5.49-13.38-7.09-19.29-3.12
		l-0.01,0.01 M26.36,59.24L26.36,59.24l-0.11,0l14.69,19.92l0,0c4.92,6.74,14.5,8.26,21.25,3.35L45.07,59.24L62.2,35.97
		c-6.75-4.91-16.33-3.39-21.25,3.35l0,0L26.25,59.24H26.36z"/>
	<path class="st1" d="M357.24,78.21h-7.46v7.46C353.9,85.67,357.24,82.33,357.24,78.21 M358.59,50.5l7.46-7.46h-8.81V40.2v-7.46
		c-4.12,0-7.46,3.34-7.46,7.46v38.01h7.46V50.5L358.59,50.5L358.59,50.5z M366.05,43.04L366.05,43.04l-7.46,7.46
		C362.71,50.5,366.05,47.16,366.05,43.04"/>
	<path class="st1" d="M174.26,40.58v-7.46c-14.41,0-26.1,11.69-26.1,26.1s11.69,26.1,26.1,26.1v-7.46
		c-9.02,0-16.54-6.41-18.27-14.92h15.78c4.12,0,7.46-3.34,7.46-7.46h-23.24C157.72,46.98,165.24,40.58,174.26,40.58 M181.72,33.12
		h-7.46v7.46C178.38,40.58,181.72,37.24,181.72,33.12 M174.26,85.32h7.46c0-4.12-3.34-7.46-7.46-7.46V85.32z M212.24,85.32h7.46
		V55.49c0-6.86-5.56-12.43-12.43-12.43h-16.14v42.26h7.46v-34.8h8.68c2.75,0,4.97,2.23,4.97,4.97V85.32z"/>
	<path class="st1" d="M322.97,55.49c0-2.75,2.23-4.97,4.97-4.97h4.97c4.12,0,7.46-3.34,7.46-7.46h-7.46h-4.97
		c-6.86,0-12.43,5.56-12.43,12.43c0,6.86,5.56,12.43,12.43,12.43c2.74,0,4.97,2.23,4.97,4.97c0,2.75-2.23,4.97-4.97,4.97h-4.97
		c-4.12,0-7.46,3.34-7.46,7.46h7.46h4.97c6.86,0,12.43-5.57,12.43-12.43c0-6.86-5.56-12.43-12.43-12.43
		C325.19,60.46,322.97,58.24,322.97,55.49"/>
	<path class="st1" d="M239.28,78.21l-7.46-1.08v8.54C235.94,85.67,239.28,82.33,239.28,78.21 M240.63,50.5l7.46-7.46h-8.81V40.2
		v-7.46c-4.12,0-7.46,3.34-7.46,7.46v38.01h7.46V50.5L240.63,50.5L240.63,50.5z M248.09,43.04L248.09,43.04l-7.46,7.46
		C244.75,50.5,248.09,47.16,248.09,43.04"/>
	<path class="st1" d="M272.45,43.04h-7.46h-0.01c-6.87,0-12.44,5.57-12.44,12.44v21.86v0.88v7.46c4.12,0,7.46-3.34,7.46-7.46V55.48
		c0-2.75,2.23-4.97,4.97-4.97h0.01C269.11,50.5,272.45,47.16,272.45,43.04"/>
	<path class="st1" d="M285.03,43.06h-7.46v29.83c0,6.86,5.56,12.43,12.43,12.43h16.14V43.06h-7.46v34.8H290
		c-2.75,0-4.97-2.23-4.97-4.97V43.06z"/>
</g>
</svg>
